<svg width="1024" height="1024" viewBox="0 0 1024 1024" fill="none" xmlns="http://www.w3.org/2000/svg">
  <defs>
    <linearGradient id="bg" x1="140" y1="80" x2="884" y2="944" gradientUnits="userSpaceOnUse">
      <stop stop-color="#B57A00"/>
      <stop offset="1" stop-color="#7A5400"/>
    </linearGradient>
    <linearGradient id="panel" x1="312" y1="220" x2="712" y2="804" gradientUnits="userSpaceOnUse">
      <stop stop-color="#FFFDF7"/>
      <stop offset="1" stop-color="#F5E9C8"/>
    </linearGradient>
  </defs>

  <rect x="64" y="64" width="896" height="896" rx="220" fill="url(#bg)"/>
  <rect x="64" y="64" width="896" height="896" rx="220" stroke="#E8C56A" stroke-opacity="0.35" stroke-width="18"/>

  <rect x="262" y="180" width="500" height="664" rx="72" fill="url(#panel)"/>
  <rect x="262" y="180" width="500" height="664" rx="72" stroke="#E1C06A" stroke-width="14"/>

  <rect x="336" y="296" width="252" height="34" rx="17" fill="#B98919" opacity="0.95"/>
  <rect x="336" y="370" width="214" height="26" rx="13" fill="#D0A64B"/>
  <rect x="336" y="424" width="186" height="26" rx="13" fill="#D0A64B" opacity="0.82"/>

  <g transform="translate(314 442) scale(15.8)">
    <path d="M22.7 19L13.6 9.9C14.5 7.6 14 4.9 12.1 3C10.1 1 7.1 0.6 4.7 1.8L9 6.1L6.1 9L1.8 4.7C0.6 7.1 1 10.1 2.9 12C4.8 13.9 7.5 14.4 9.8 13.5L18.9 22.6C19.3 23 20 23 20.4 22.6L22.7 20.3C23.1 19.9 23.1 19.3 22.7 19Z" fill="#9A6B00"/>
  </g>
</svg>
